<?xml version="1.0" encoding="iso-8859-1"?>
<!-- Generator: Adobe Illustrator 19.0.0, SVG Export Plug-In . SVG Version: 6.00 Build 0)  -->
<svg version="1.1" id="Capa_1" xmlns="http://www.w3.org/2000/svg" xmlns:xlink="http://www.w3.org/1999/xlink" x="0px" y="0px"
	 viewBox="0 0 512.001 512.001" style="enable-background:new 0 0 512.001 512.001;" xml:space="preserve">
<circle style="fill:#00BAFF;" cx="256" cy="256" r="256"/>
<path style="fill:#008CC3;" d="M382.068,478.842c73.159-41.478,123.865-117.933,129.407-206.641L329.447,90.173l-179.808,149.16
	l40.91,40.91l-3.889,3.19L382.068,478.842z"/>
<circle style="fill:#F2D99C;" cx="166" cy="200.33" r="25.652"/>
<circle style="fill:#D1BB8B;" cx="346" cy="200.33" r="25.652"/>
<path style="fill:#F2D99C;" d="M387.491,352.306l-83.437-10.673c-10.243-1.31-17.917-10.028-17.917-20.354v-37.845h-60.275v37.845
	c0,10.326-7.674,19.044-17.917,20.354l-83.437,10.673c-25.541,3.267-44.675,25.005-44.675,50.753v38.678
	C125.728,485.281,187.742,512,256,512s130.272-26.719,176.166-70.263v-38.678C432.166,377.311,413.033,355.573,387.491,352.306z"/>
<path style="fill:#D8BF87;" d="M387.491,352.306l-83.437-10.673c-10.243-1.31-17.917-10.028-17.917-20.354v-37.845h-30.185V512
	c0.016,0,0.032,0.001,0.048,0.001c68.258,0,130.272-26.719,176.166-70.263V403.06C432.166,377.311,413.033,355.573,387.491,352.306z
	"/>
<path style="fill:#FFECB3;" d="M305.162,299.136l-14.163,7.626c-21.763,11.718-47.957,11.718-69.72,0l-14.163-7.626
	c-26.154-14.083-42.464-41.389-42.464-71.094v-87.359h182.973v87.359C347.626,257.747,331.316,285.053,305.162,299.136z"/>
<path style="fill:#FFD863;" d="M347.625,140.683h-91.673v174.865c12.051,0.031,24.109-2.896,35.047-8.786l14.163-7.626
	c26.154-14.083,42.464-41.389,42.464-71.094L347.625,140.683L347.625,140.683z"/>
<path style="fill:#FFFFFF;" d="M387.491,352.306l-70.616-9.033c-15.225,16.241-36.858,26.402-60.875,26.402
	s-45.651-10.161-60.875-26.402l-70.616,9.033c-25.541,3.267-44.675,25.005-44.675,50.753v38.678
	C125.728,485.281,187.742,512,256,512s130.272-26.719,176.166-70.263v-38.678C432.166,377.311,413.033,355.573,387.491,352.306z"/>
<path style="fill:#F2F2F2;" d="M256,512c68.258,0,130.272-26.719,176.166-70.263v-38.678c0-25.749-19.134-47.486-44.675-50.753
	l-70.616-9.033c-15.225,16.241-36.858,26.402-60.875,26.402L256,512L256,512z"/>
<path style="fill:#E0E0E0;" d="M251.656,369.56c-22.275-1.144-42.23-11.032-56.531-26.288l-30.474,3.898l48.254,62.271L256,369.695
	C254.541,369.695,253.093,369.648,251.656,369.56z"/>
<path style="fill:#C0C0C0;" d="M256,369.695l43.095,39.747l48.254-62.271l-30.474-3.898c-14.301,15.255-34.257,25.143-56.531,26.288
	C258.908,369.648,257.46,369.695,256,369.695z"/>
<path style="fill:#4D4D4D;" d="M346.569,239.333h16.07v-71.908c0-58.944-47.885-106.703-106.877-106.499
	c-58.86,0.204-106.123,48.795-106.123,107.655v70.752h15.013v-49.692c69.681,9.025,124.835-40.821,124.835-40.821
	s24.179,46.846,57.081,55.154v35.359H346.569z"/>
<path style="fill:#333333;" d="M255.952,60.928v110.27c20.862-10.93,33.535-22.377,33.535-22.377s24.179,46.846,57.081,55.154
	v35.359h16.07v-71.908C362.639,108.545,314.856,60.827,255.952,60.928z"/>
<g>
</g>
<g>
</g>
<g>
</g>
<g>
</g>
<g>
</g>
<g>
</g>
<g>
</g>
<g>
</g>
<g>
</g>
<g>
</g>
<g>
</g>
<g>
</g>
<g>
</g>
<g>
</g>
<g>
</g>
</svg>
