<?xml version="1.0"?>
<svg xmlns="http://www.w3.org/2000/svg" xmlns:xlink="http://www.w3.org/1999/xlink" xmlns:svgjs="http://svgjs.com/svgjs" version="1.1" width="512" height="512" x="0" y="0" viewBox="0 0 511.999 511.999" style="enable-background:new 0 0 512 512" xml:space="preserve" class=""><g>
<path xmlns="http://www.w3.org/2000/svg" style="" d="M133.84,17.105C64.171,23.933,7.843,80.313,1.011,149.982c-3.54,36.099,5.907,69.837,24.149,97.211  L0.739,302.141c-3.07,6.907,3.988,13.964,10.894,10.894l54.949-24.422c27.374,18.242,61.112,27.689,97.211,24.149  c69.669-6.832,126.049-63.161,132.876-132.831C305.865,86.095,227.676,7.908,133.84,17.105z" fill="#3093f4" data-original="#ff8087" class=""/>
<path xmlns="http://www.w3.org/2000/svg" style="" d="M204.945,278.829c-17.333,2.845-35.647,2.752-54.729-1.665  C79.281,260.743,29.873,198.173,33.167,125.437c1.361-30.053,11.752-57.707,28.377-80.529  C28.238,69.263,5.219,107.077,1.012,149.982c-3.54,36.099,5.907,69.837,24.149,97.211L0.739,302.141  c-3.07,6.907,3.988,13.964,10.894,10.894l54.949-24.422c27.374,18.242,61.112,27.689,97.212,24.149  c14.189-1.391,27.673-4.841,40.43-10.066c-0.017,0.059,0.017-0.059,0,0c44.763-18.135,78.951-57.654,89.575-105.547  c-32.802,15.233-59.716,40.875-76.531,72.716C214.752,274.628,210.26,277.957,204.945,278.829z" fill="#3470f0" data-original="#e6646e" class=""/>
<g xmlns="http://www.w3.org/2000/svg">
	<path style="" d="M231.101,173.463h-82.536c-4.562,0-8.254-3.692-8.254-8.254c0-4.558,3.692-8.254,8.254-8.254h82.536   c4.562,0,8.254,3.696,8.254,8.254C239.355,169.771,235.663,173.463,231.101,173.463z" fill="#ffffff" data-original="#ffffff" class=""/>
	<path style="" d="M206.34,132.195h-57.775c-4.562,0-8.254-3.696-8.254-8.254s3.692-8.254,8.254-8.254h57.775   c4.562,0,8.254,3.696,8.254,8.254S210.902,132.195,206.34,132.195z" fill="#ffffff" data-original="#ffffff" class=""/>
	<path style="" d="M231.101,214.731h-82.536c-4.562,0-8.254-3.692-8.254-8.254s3.692-8.254,8.254-8.254h82.536   c4.562,0,8.254,3.692,8.254,8.254C239.355,211.039,235.663,214.731,231.101,214.731z" fill="#ffffff" data-original="#ffffff" class=""/>
</g>
<path xmlns="http://www.w3.org/2000/svg" style="" d="M378.16,198.961c69.669,6.828,125.997,63.208,132.828,132.877  c3.54,36.099-5.907,69.837-24.149,97.211l24.422,54.949c3.07,6.907-3.988,13.964-10.894,10.894l-54.949-24.422  c-27.374,18.242-61.112,27.689-97.211,24.149c-69.669-6.832-126.049-63.161-132.876-132.831  C206.135,267.951,284.324,189.763,378.16,198.961z" fill="#edebed" data-original="#edebed" class=""/>
<path xmlns="http://www.w3.org/2000/svg" style="" d="M453.948,355.042H272.369c-4.562,0-8.254-3.692-8.254-8.254s3.692-8.254,8.254-8.254h181.579  c4.562,0,8.254,3.692,8.254,8.254S458.51,355.042,453.948,355.042z" fill="#5d5360" data-original="#5d5360" class=""/>
<g xmlns="http://www.w3.org/2000/svg">
	<path style="" d="M429.187,313.774H297.13c-4.562,0-8.254-3.692-8.254-8.254s3.692-8.254,8.254-8.254h132.058   c4.562,0,8.254,3.692,8.254,8.254C437.441,310.083,433.749,313.774,429.187,313.774z" fill="#6f6571" data-original="#6f6571" class=""/>
	<path style="" d="M429.187,396.31H297.13c-4.562,0-8.254-3.692-8.254-8.254s3.692-8.254,8.254-8.254h132.058   c4.562,0,8.254,3.692,8.254,8.254S433.749,396.31,429.187,396.31z" fill="#6f6571" data-original="#6f6571" class=""/>
</g>
<g xmlns="http://www.w3.org/2000/svg">
	<path style="" d="M90.79,189.97c-4.562,0-8.254-3.692-8.254-8.254v-1.459c0-7.383,4.997-13.638,12.437-15.58   c8.391-2.184,13.573-10.373,12.05-19.038c-1.136-6.492-6.682-12.034-13.17-13.174c-5.03-0.875-9.866,0.391-13.67,3.587   c-3.748,3.152-5.9,7.762-5.9,12.65c0,4.558-3.692,8.254-8.254,8.254s-8.254-3.696-8.254-8.254c0-9.781,4.296-18.998,11.792-25.293   c7.488-6.287,17.345-8.919,27.139-7.202c13.315,2.337,24.245,13.267,26.582,26.578c3.014,17.212-7.367,33.49-24.156,37.867   l-0.089,1.064C99.043,186.279,95.352,189.97,90.79,189.97z" fill="#ffffff" data-original="#ffffff" class=""/>
	<path style="" d="M90.87,214.731c-4.562,0-8.294-3.692-8.294-8.254s3.651-8.254,8.213-8.254h0.081   c4.562,0,8.254,3.692,8.254,8.254S95.432,214.731,90.87,214.731z" fill="#ffffff" data-original="#ffffff" class=""/>
</g>
<path xmlns="http://www.w3.org/2000/svg" style="" d="M450.115,452.08c-24.774,9.729-52.698,13.145-82.02,7.603  c-62.697-11.85-111.582-64.014-119.346-127.346c-4.892-39.903,6.257-76.973,27.591-106.119  c-40.981,29.561-66.286,79.5-61.067,134.969c6.579,69.915,63.046,126.578,132.935,133.431c36.099,3.54,69.837-5.907,97.211-24.149  l54.949,24.422c4.121,1.832,8.25,0.022,10.294-3.174l-44.244-36.87C461.873,451.06,455.622,449.918,450.115,452.08z" fill="#dbd9dc" data-original="#dbd9dc" class=""/>
<g xmlns="http://www.w3.org/2000/svg">
</g>
<g xmlns="http://www.w3.org/2000/svg">
</g>
<g xmlns="http://www.w3.org/2000/svg">
</g>
<g xmlns="http://www.w3.org/2000/svg">
</g>
<g xmlns="http://www.w3.org/2000/svg">
</g>
<g xmlns="http://www.w3.org/2000/svg">
</g>
<g xmlns="http://www.w3.org/2000/svg">
</g>
<g xmlns="http://www.w3.org/2000/svg">
</g>
<g xmlns="http://www.w3.org/2000/svg">
</g>
<g xmlns="http://www.w3.org/2000/svg">
</g>
<g xmlns="http://www.w3.org/2000/svg">
</g>
<g xmlns="http://www.w3.org/2000/svg">
</g>
<g xmlns="http://www.w3.org/2000/svg">
</g>
<g xmlns="http://www.w3.org/2000/svg">
</g>
<g xmlns="http://www.w3.org/2000/svg">
</g>
</g></svg>
