<svg id="Layer_1" height="512" viewBox="0 0 128 128" width="512" xmlns="http://www.w3.org/2000/svg" data-name="Layer 1"><path d="m80.114 104.674h-22.765a4.326 4.326 0 0 1 -4.312-3.98l-5.446-67.833h42.28l-5.446 67.834a4.326 4.326 0 0 1 -4.311 3.979z" fill="#e5feff"/><path d="m57.293 104.674h22.877a3.936 3.936 0 0 1 3.936 3.936v2.39a0 0 0 0 1 0 0h-30.749a0 0 0 0 1 0 0v-2.389a3.936 3.936 0 0 1 3.936-3.937z" fill="#e5feff"/><path d="m58.595 22.315a14.754 14.754 0 1 0 -20.865 20.865z" fill="#fedd55"/><path d="m57.972 99.674-3.356-41.8a22.991 22.991 0 0 0 6.441.908 25.1 25.1 0 0 0 6.079-.766 26.094 26.094 0 0 1 6.322-.784 19.827 19.827 0 0 1 9.275 2.031l-3.244 40.41z" fill="#fedd55"/><path d="m68.678 78.917a1.753 1.753 0 0 1 -1.723-2.072l11.23-60.166a1.751 1.751 0 0 1 1.721-1.429h14.686a1.75 1.75 0 0 1 0 3.5h-13.234l-10.958 58.738a1.751 1.751 0 0 1 -1.722 1.429z" fill="#444"/><path d="m46 32.748a1.733 1.733 0 0 0 -.1-.572 1.738 1.738 0 0 0 1.7-1.779 1.732 1.732 0 0 0 .571.1 1.75 1.75 0 0 0 1.75-1.75v-10.637a14.82 14.82 0 0 0 -3.5 0v10.413l-7.365-7.365a13.606 13.606 0 0 0 -2.475 2.475l7.356 7.367h-10.412a14.817 14.817 0 0 0 0 3.5h10.725a1.75 1.75 0 0 0 1.75-1.752z" fill="#fdb556"/><path d="m44.353 28.938a5.388 5.388 0 0 0 0 7.619l7.619-7.619a5.388 5.388 0 0 0 -7.619 0z" fill="#1fca74"/></svg>